<mxfile host="app.diagrams.net" modified="2022-12-10T15:44:42.159Z" agent="5.0 (Windows NT 10.0; Win64; x64) AppleWebKit/537.36 (KHTML, like Gecko) Chrome/107.0.0.0 Safari/537.36" etag="KuG1c2UvLKoK5l53W9gd" version="20.5.3" type="github">
  <diagram id="n2nTEFsNQvdwj3dzA6Ov" name="1-删除元素有左右子元素">
    <mxGraphModel dx="2073" dy="96" grid="1" gridSize="10" guides="1" tooltips="1" connect="1" arrows="1" fold="1" page="0" pageScale="1" pageWidth="827" pageHeight="1169" math="0" shadow="0">
      <root>
        <mxCell id="0" />
        <mxCell id="1" parent="0" />
        <mxCell id="eHNU6osgm7ywyZbChXZ6-1" style="rounded=0;orthogonalLoop=1;jettySize=auto;html=1;exitX=0.5;exitY=1;exitDx=0;exitDy=0;entryX=0.5;entryY=0;entryDx=0;entryDy=0;fontSize=20;" edge="1" parent="1" source="eHNU6osgm7ywyZbChXZ6-3" target="eHNU6osgm7ywyZbChXZ6-6">
          <mxGeometry relative="1" as="geometry" />
        </mxCell>
        <mxCell id="eHNU6osgm7ywyZbChXZ6-2" style="edgeStyle=none;rounded=0;orthogonalLoop=1;jettySize=auto;html=1;exitX=0.5;exitY=1;exitDx=0;exitDy=0;entryX=0.5;entryY=0;entryDx=0;entryDy=0;fontSize=20;" edge="1" parent="1" source="eHNU6osgm7ywyZbChXZ6-3" target="eHNU6osgm7ywyZbChXZ6-7">
          <mxGeometry relative="1" as="geometry" />
        </mxCell>
        <mxCell id="eHNU6osgm7ywyZbChXZ6-3" value="&lt;b style=&quot;font-size: 20px;&quot;&gt;70&lt;/b&gt;" style="ellipse;whiteSpace=wrap;html=1;aspect=fixed;fontSize=20;fillColor=#f5f5f5;gradientColor=#b3b3b3;strokeColor=#666666;" vertex="1" parent="1">
          <mxGeometry x="-40" y="880" width="80" height="80" as="geometry" />
        </mxCell>
        <mxCell id="eHNU6osgm7ywyZbChXZ6-6" value="&lt;b style=&quot;font-size: 20px;&quot;&gt;66&lt;/b&gt;" style="ellipse;whiteSpace=wrap;html=1;aspect=fixed;fontSize=20;fillColor=#f5f5f5;strokeColor=#666666;gradientColor=#b3b3b3;" vertex="1" parent="1">
          <mxGeometry x="-160" y="1000" width="80" height="80" as="geometry" />
        </mxCell>
        <mxCell id="eHNU6osgm7ywyZbChXZ6-7" value="&lt;b style=&quot;font-size: 20px;&quot;&gt;88&lt;/b&gt;" style="ellipse;whiteSpace=wrap;html=1;aspect=fixed;fontSize=20;fillColor=#f5f5f5;gradientColor=#b3b3b3;strokeColor=#666666;" vertex="1" parent="1">
          <mxGeometry x="80" y="1000" width="80" height="80" as="geometry" />
        </mxCell>
        <mxCell id="eHNU6osgm7ywyZbChXZ6-16" value="&lt;b style=&quot;font-size: 20px;&quot;&gt;85&lt;/b&gt;" style="ellipse;whiteSpace=wrap;html=1;aspect=fixed;fontSize=20;fillColor=#f8cecc;gradientColor=#ea6b66;strokeColor=#b85450;" vertex="1" parent="1">
          <mxGeometry y="1120" width="80" height="80" as="geometry" />
        </mxCell>
        <mxCell id="eHNU6osgm7ywyZbChXZ6-17" value="&lt;b style=&quot;font-size: 20px;&quot;&gt;98&lt;/b&gt;" style="ellipse;whiteSpace=wrap;html=1;aspect=fixed;fontSize=20;fillColor=#f8cecc;gradientColor=#ea6b66;strokeColor=#b85450;" vertex="1" parent="1">
          <mxGeometry x="160" y="1120" width="80" height="80" as="geometry" />
        </mxCell>
        <mxCell id="eHNU6osgm7ywyZbChXZ6-18" style="rounded=0;orthogonalLoop=1;jettySize=auto;html=1;exitX=0.5;exitY=1;exitDx=0;exitDy=0;entryX=0.5;entryY=0;entryDx=0;entryDy=0;fontSize=20;" edge="1" parent="1" source="eHNU6osgm7ywyZbChXZ6-7" target="eHNU6osgm7ywyZbChXZ6-16">
          <mxGeometry relative="1" as="geometry">
            <mxPoint x="10" y="970" as="sourcePoint" />
            <mxPoint x="-110" y="1010" as="targetPoint" />
          </mxGeometry>
        </mxCell>
        <mxCell id="eHNU6osgm7ywyZbChXZ6-19" style="rounded=0;orthogonalLoop=1;jettySize=auto;html=1;entryX=0.5;entryY=0;entryDx=0;entryDy=0;fontSize=20;" edge="1" parent="1" target="eHNU6osgm7ywyZbChXZ6-17">
          <mxGeometry relative="1" as="geometry">
            <mxPoint x="120" y="1080" as="sourcePoint" />
            <mxPoint x="10" y="1130" as="targetPoint" />
          </mxGeometry>
        </mxCell>
        <mxCell id="eHNU6osgm7ywyZbChXZ6-20" value="删除88元素" style="shape=callout;whiteSpace=wrap;html=1;perimeter=calloutPerimeter;fontSize=20;rounded=1;arcSize=50;position2=0.19;size=40;position=0.48;direction=east;" vertex="1" parent="1">
          <mxGeometry x="100" y="920" width="160" height="80" as="geometry" />
        </mxCell>
      </root>
    </mxGraphModel>
  </diagram>
</mxfile>
